<mxfile host="app.diagrams.net" modified="2024-05-25T08:35:16.109Z" agent="Mozilla/5.0 (Windows NT 10.0; Win64; x64) AppleWebKit/537.36 (KHTML, like Gecko) Chrome/125.0.0.0 Safari/537.36" etag="IIm8yUWUNu5AwQmJn0KF" version="24.4.8" type="device">
  <diagram name="페이지-1" id="Ja1C__DSjcIJ0C1hhESr">
    <mxGraphModel dx="792" dy="1131" grid="1" gridSize="10" guides="1" tooltips="1" connect="1" arrows="1" fold="1" page="1" pageScale="1" pageWidth="827" pageHeight="1169" math="0" shadow="0">
      <root>
        <mxCell id="0" />
        <mxCell id="1" parent="0" />
        <mxCell id="cNlX0SK-06XZ1Ml3ea98-3" style="edgeStyle=orthogonalEdgeStyle;rounded=0;orthogonalLoop=1;jettySize=auto;html=1;exitX=1;exitY=0.5;exitDx=0;exitDy=0;endArrow=none;endFill=0;" parent="1" source="cNlX0SK-06XZ1Ml3ea98-1" target="cNlX0SK-06XZ1Ml3ea98-2" edge="1">
          <mxGeometry relative="1" as="geometry" />
        </mxCell>
        <mxCell id="soGLjcOrnY3rX45E8kJK-5" style="edgeStyle=orthogonalEdgeStyle;rounded=0;orthogonalLoop=1;jettySize=auto;html=1;exitX=0;exitY=0.5;exitDx=0;exitDy=0;endArrow=none;endFill=0;" parent="1" source="cNlX0SK-06XZ1Ml3ea98-1" target="soGLjcOrnY3rX45E8kJK-1" edge="1">
          <mxGeometry relative="1" as="geometry" />
        </mxCell>
        <mxCell id="cNlX0SK-06XZ1Ml3ea98-1" value=":TrashController" style="rounded=0;whiteSpace=wrap;html=1;" parent="1" vertex="1">
          <mxGeometry x="190" y="530" width="120" height="60" as="geometry" />
        </mxCell>
        <mxCell id="cNlX0SK-06XZ1Ml3ea98-5" value="" style="endArrow=classic;html=1;rounded=0;" parent="1" edge="1">
          <mxGeometry width="50" height="50" relative="1" as="geometry">
            <mxPoint x="55" y="550" as="sourcePoint" />
            <mxPoint x="175" y="550" as="targetPoint" />
          </mxGeometry>
        </mxCell>
        <mxCell id="cNlX0SK-06XZ1Ml3ea98-6" value="1:deleteMailDo(msgId)" style="text;html=1;align=center;verticalAlign=middle;whiteSpace=wrap;rounded=0;" parent="1" vertex="1">
          <mxGeometry x="20" y="520" width="190" height="30" as="geometry" />
        </mxCell>
        <mxCell id="cNlX0SK-06XZ1Ml3ea98-13" value="" style="endArrow=classic;html=1;rounded=0;" parent="1" edge="1">
          <mxGeometry width="50" height="50" relative="1" as="geometry">
            <mxPoint x="320" y="550" as="sourcePoint" />
            <mxPoint x="480" y="550" as="targetPoint" />
          </mxGeometry>
        </mxCell>
        <mxCell id="cNlX0SK-06XZ1Ml3ea98-14" value="1.1: result = deleteMessage(msgId, DOWNLOAD_FOLDER)" style="text;html=1;align=center;verticalAlign=middle;whiteSpace=wrap;rounded=0;" parent="1" vertex="1">
          <mxGeometry x="300" y="510" width="200" height="30" as="geometry" />
        </mxCell>
        <mxCell id="hDBwHiQ_6nEI-x_y-Ero-1" value=":MessageParser" style="rounded=0;whiteSpace=wrap;html=1;" parent="1" vertex="1">
          <mxGeometry x="740" y="530" width="120" height="60" as="geometry" />
        </mxCell>
        <mxCell id="hDBwHiQ_6nEI-x_y-Ero-3" value="" style="endArrow=classic;html=1;rounded=0;" parent="1" edge="1">
          <mxGeometry width="50" height="50" relative="1" as="geometry">
            <mxPoint x="620" y="550" as="sourcePoint" />
            <mxPoint x="730" y="550" as="targetPoint" />
          </mxGeometry>
        </mxCell>
        <mxCell id="hDBwHiQ_6nEI-x_y-Ero-4" value="1.1.1: fileName = getFileName()" style="text;html=1;align=center;verticalAlign=middle;whiteSpace=wrap;rounded=0;" parent="1" vertex="1">
          <mxGeometry x="620" y="520" width="110" height="30" as="geometry" />
        </mxCell>
        <mxCell id="hDBwHiQ_6nEI-x_y-Ero-7" value="" style="endArrow=classic;html=1;rounded=0;" parent="1" source="cNlX0SK-06XZ1Ml3ea98-2" edge="1">
          <mxGeometry width="50" height="50" relative="1" as="geometry">
            <mxPoint x="680" y="570" as="sourcePoint" />
            <mxPoint x="570" y="570" as="targetPoint" />
          </mxGeometry>
        </mxCell>
        <mxCell id="soGLjcOrnY3rX45E8kJK-1" value="Actor" style="shape=umlActor;verticalLabelPosition=bottom;verticalAlign=top;html=1;outlineConnect=0;" parent="1" vertex="1">
          <mxGeometry x="10" y="530" width="30" height="60" as="geometry" />
        </mxCell>
        <mxCell id="soGLjcOrnY3rX45E8kJK-7" style="edgeStyle=orthogonalEdgeStyle;rounded=0;orthogonalLoop=1;jettySize=auto;html=1;exitX=1;exitY=0.5;exitDx=0;exitDy=0;entryX=0;entryY=0.5;entryDx=0;entryDy=0;endArrow=none;endFill=0;" parent="1" source="cNlX0SK-06XZ1Ml3ea98-2" target="hDBwHiQ_6nEI-x_y-Ero-1" edge="1">
          <mxGeometry relative="1" as="geometry" />
        </mxCell>
        <mxCell id="cNlX0SK-06XZ1Ml3ea98-2" value=":Pop3Agent" style="rounded=0;whiteSpace=wrap;html=1;" parent="1" vertex="1">
          <mxGeometry x="490" y="530" width="120" height="60" as="geometry" />
        </mxCell>
        <mxCell id="soGLjcOrnY3rX45E8kJK-17" value="" style="endArrow=none;html=1;rounded=0;entryX=0.5;entryY=0;entryDx=0;entryDy=0;exitX=0.5;exitY=1;exitDx=0;exitDy=0;endFill=0;" parent="1" edge="1" target="454g3waXnRirxC_wHJ1Z-1" source="cNlX0SK-06XZ1Ml3ea98-1">
          <mxGeometry width="50" height="50" relative="1" as="geometry">
            <mxPoint x="170" y="570" as="sourcePoint" />
            <mxPoint x="60" y="570" as="targetPoint" />
          </mxGeometry>
        </mxCell>
        <mxCell id="soGLjcOrnY3rX45E8kJK-19" value="&lt;font style=&quot;font-size: 10px;&quot;&gt;1.3: [result==true] 성공 알림&lt;/font&gt;" style="text;html=1;align=center;verticalAlign=middle;whiteSpace=wrap;rounded=0;" parent="1" vertex="1">
          <mxGeometry x="259" y="590" width="135" height="30" as="geometry" />
        </mxCell>
        <mxCell id="gI_39uLeY-2mzvwiVGCw-2" value="" style="endArrow=classic;html=1;rounded=0;exitX=1;exitY=1;exitDx=0;exitDy=0;entryX=0.75;entryY=1;entryDx=0;entryDy=0;" parent="1" source="cNlX0SK-06XZ1Ml3ea98-2" target="cNlX0SK-06XZ1Ml3ea98-2" edge="1">
          <mxGeometry width="50" height="50" relative="1" as="geometry">
            <mxPoint x="594.16" y="600" as="sourcePoint" />
            <mxPoint x="550" y="601.74" as="targetPoint" />
            <Array as="points">
              <mxPoint x="610" y="610" />
              <mxPoint x="580" y="610" />
            </Array>
          </mxGeometry>
        </mxCell>
        <mxCell id="gI_39uLeY-2mzvwiVGCw-4" value="1.1.2: File(filePath)" style="text;html=1;align=center;verticalAlign=middle;whiteSpace=wrap;rounded=0;" parent="1" vertex="1">
          <mxGeometry x="560" y="610" width="110" height="30" as="geometry" />
        </mxCell>
        <mxCell id="gI_39uLeY-2mzvwiVGCw-6" value="1.1.3: file.delete()&amp;nbsp;" style="text;html=1;align=center;verticalAlign=middle;whiteSpace=wrap;rounded=0;" parent="1" vertex="1">
          <mxGeometry x="565" y="630" width="100" height="30" as="geometry" />
        </mxCell>
        <mxCell id="gI_39uLeY-2mzvwiVGCw-7" value="&lt;font style=&quot;font-size: 10px;&quot;&gt;1.4: [result==false] 실패 알림&lt;/font&gt;" style="text;html=1;align=center;verticalAlign=middle;whiteSpace=wrap;rounded=0;" parent="1" vertex="1">
          <mxGeometry x="260" y="610" width="135" height="30" as="geometry" />
        </mxCell>
        <mxCell id="454g3waXnRirxC_wHJ1Z-1" value=":TrashMenu" style="rounded=0;whiteSpace=wrap;html=1;" vertex="1" parent="1">
          <mxGeometry x="190" y="680" width="120" height="60" as="geometry" />
        </mxCell>
        <mxCell id="454g3waXnRirxC_wHJ1Z-2" value="" style="endArrow=classic;html=1;rounded=0;" edge="1" parent="1">
          <mxGeometry width="50" height="50" relative="1" as="geometry">
            <mxPoint x="260" y="600" as="sourcePoint" />
            <mxPoint x="260" y="670" as="targetPoint" />
          </mxGeometry>
        </mxCell>
        <mxCell id="454g3waXnRirxC_wHJ1Z-4" value="&lt;font style=&quot;font-size: 10px;&quot;&gt;1.5: &amp;lt;&amp;lt;navigate&amp;gt;&amp;gt;&lt;/font&gt;" style="text;html=1;align=center;verticalAlign=middle;whiteSpace=wrap;rounded=0;" vertex="1" parent="1">
          <mxGeometry x="246" y="630" width="121" height="30" as="geometry" />
        </mxCell>
      </root>
    </mxGraphModel>
  </diagram>
</mxfile>
